<svg width="40" height="40" viewBox="0 0 40 40" fill="none" xmlns="http://www.w3.org/2000/svg">
<g clip-path="url(#clip0_570_125897)">
<path d="M33.6848 15.2101V13.6723C33.6848 9.9916 32.3822 6.57143 30.0209 4.03361C27.6007 1.42857 24.273 0 20.6427 0H19.3738C15.7436 0 12.4159 1.42857 9.99569 4.03361C7.63434 6.57143 6.33182 9.9916 6.33182 13.6723V15.2101C3.46628 15.4034 1.18896 17.7899 1.18896 20.7059V23.1092C1.18896 26.1429 3.65955 28.6134 6.69317 28.6134H9.79401C10.3486 28.6134 10.8024 28.1597 10.8024 27.605V16.2017C10.8024 15.6471 10.3486 15.1933 9.79401 15.1933H8.34863V13.6723C8.34863 7.02521 13.0881 2.01681 19.3654 2.01681H20.6343C26.9201 2.01681 31.6512 7.02521 31.6512 13.6723V15.1933H30.2058C29.6512 15.1933 29.1974 15.6471 29.1974 16.2017V27.5966C29.1974 28.1513 29.6512 28.605 30.2058 28.605H31.6175C31.2058 33.8655 27.5839 35.084 25.9033 35.3613C25.4411 33.9412 24.1049 32.916 22.5335 32.916H20.0125C18.0629 32.916 16.4747 34.5042 16.4747 36.4538C16.4747 38.4034 18.0629 40 20.0125 40H22.5419C24.1722 40 25.5419 38.8908 25.9537 37.395C26.7772 37.2773 28.0797 36.9832 29.3738 36.2269C31.1974 35.1597 33.357 32.9832 33.6427 28.5966C36.5251 28.4202 38.8108 26.0252 38.8108 23.1008V20.6975C38.8192 17.7899 36.5503 15.395 33.6848 15.2101ZM8.80241 26.5882H6.70997C4.7856 26.5882 3.22258 25.0252 3.22258 23.1008V20.6975C3.22258 18.7731 4.7856 17.2101 6.70997 17.2101H8.80241V26.5882ZM22.5419 37.9832H20.0125C19.1722 37.9832 18.4915 37.3025 18.4915 36.4622C18.4915 35.6218 19.1722 34.9412 20.0125 34.9412H22.5419C23.3822 34.9412 24.0629 35.6218 24.0629 36.4622C24.0629 37.3025 23.3822 37.9832 22.5419 37.9832ZM36.8024 23.1008C36.8024 25.0252 35.2394 26.5882 33.315 26.5882H31.2226V17.2101H33.315C35.2394 17.2101 36.8024 18.7731 36.8024 20.6975V23.1008Z" fill="#00B307"/>
</g>
<defs>
<clipPath id="clip0_570_125897">
<rect width="40" height="40" fill="white"/>
</clipPath>
</defs>
</svg>
