<svg width="26" height="33" viewBox="0 0 26 33" fill="none" xmlns="http://www.w3.org/2000/svg">
<path d="M25.0671 24.7501C25.326 24.7501 25.5359 24.5402 25.5359 24.2813V13.0313C25.5359 12.4718 25.3178 11.8995 24.9219 11.4198L21.4454 7.20769C21.2633 6.987 21.0539 6.801 20.8265 6.65287C20.8405 6.50962 20.8484 6.36494 20.8484 6.21887V0.968872C20.8484 0.709997 20.6385 0.500122 20.3797 0.500122C20.1208 0.500122 19.9109 0.709997 19.9109 0.968872C19.9109 0.968872 19.91 6.26356 19.9096 6.28593C19.7762 6.26231 19.6409 6.25012 19.5047 6.25012H13.4422C13.0154 6.25012 12.597 6.36987 12.2224 6.58994C12.2062 6.59575 12.1902 6.60225 12.1744 6.60994L7.60498 8.83568C7.09873 9.08962 6.69392 9.51556 6.46498 10.035C6.46248 10.0407 6.46011 10.0464 6.45786 10.0521L4.56861 14.8441C4.47367 15.085 4.59192 15.3572 4.83279 15.4522C4.88923 15.4744 4.94736 15.4849 5.00461 15.4849C5.19148 15.4849 5.36811 15.3724 5.44079 15.188L7.32636 10.4052C7.46817 10.0884 7.71611 9.82887 8.02042 9.67612L10.4347 8.50019L8.02492 11.4199C7.66411 11.857 7.47342 12.4143 7.47342 13.0314V29.2189C7.47342 29.4074 7.48998 29.592 7.52004 29.7719L2.68992 27.6316C1.59879 27.1482 1.10429 25.864 1.58779 24.769C1.58986 24.7642 1.59186 24.7594 1.59386 24.7547L4.64904 17.1619C4.74567 16.9217 4.62936 16.6487 4.38917 16.5521C4.14886 16.4554 3.87598 16.5718 3.77929 16.8119L0.726794 24.3976C0.0404187 25.9632 0.749419 27.7971 2.31011 28.4886L7.97411 30.9984C7.98104 31.0014 7.98811 31.0037 7.99511 31.0064C8.56998 31.9046 9.56386 32.5001 10.6922 32.5001H22.2547C24.0333 32.5001 25.5359 30.9974 25.5359 29.2188V26.4688C25.5359 26.2099 25.326 26.0001 25.0672 26.0001C24.8083 26.0001 24.5984 26.2099 24.5984 26.4688V29.2188C24.5984 30.4893 23.5251 31.5626 22.2547 31.5626H10.6922C9.43429 31.5626 8.41092 30.5112 8.41092 29.2188V13.0313C8.41092 12.6289 8.52429 12.2875 8.74798 12.0166L12.2244 7.80444C12.548 7.41244 12.9919 7.18756 13.4422 7.18756H19.5047C19.593 7.18756 19.681 7.1965 19.7679 7.21337C19.4745 8.21406 18.7476 9.04906 17.766 9.4675C17.5094 9.03819 17.0401 8.75006 16.5046 8.75006C15.6947 8.75006 15.0359 9.40894 15.0359 10.2188C15.0359 11.0287 15.6947 11.6876 16.5046 11.6876C17.2535 11.6876 17.8729 11.1239 17.962 10.3986C19.2244 9.92112 20.179 8.90937 20.6044 7.67444C20.6452 7.7155 20.6847 7.75869 20.7224 7.80444L24.1989 12.0166C24.4565 12.3287 24.5984 12.6891 24.5984 13.0314V24.2814C24.5984 24.5402 24.8082 24.7501 25.0671 24.7501ZM16.5046 10.7501C16.2117 10.7501 15.9734 10.5117 15.9734 10.2188C15.9734 9.92587 16.2117 9.68756 16.5046 9.68756C16.7975 9.68756 17.0359 9.92587 17.0359 10.2188C17.0359 10.5117 16.7975 10.7501 16.5046 10.7501Z" fill="#00B307"/>
<path d="M12.4424 25.4375C12.5623 25.4375 12.6823 25.3917 12.7738 25.3002L20.7738 17.3002C20.9569 17.1171 20.9569 16.8203 20.7738 16.6373C20.5908 16.4542 20.294 16.4542 20.111 16.6373L12.111 24.6373C11.8121 24.9159 12.0414 25.4517 12.4424 25.4375Z" fill="#00B307"/>
<path d="M13.4414 20.5C14.5614 20.5 15.4727 19.5887 15.4727 18.4687C15.4727 17.3487 14.5614 16.4375 13.4414 16.4375H13.3789C12.2589 16.4375 11.3477 17.3487 11.3477 18.4687C11.3477 19.5887 12.2589 20.5 13.3789 20.5H13.4414ZM12.2852 18.4687C12.2852 17.8657 12.7758 17.375 13.3789 17.375H13.4414C14.0445 17.375 14.5352 17.8657 14.5352 18.4687C14.5352 19.0718 14.0445 19.5625 13.4414 19.5625H13.3789C12.7758 19.5625 12.2852 19.0718 12.2852 18.4687Z" fill="#00B307"/>
<path d="M19.5039 25.4375H19.5664C20.6864 25.4375 21.5977 24.5262 21.5977 23.4062C21.5977 22.2862 20.6864 21.375 19.5664 21.375H19.5039C18.3839 21.375 17.4727 22.2862 17.4727 23.4062C17.4727 24.5262 18.3839 25.4375 19.5039 25.4375ZM19.5039 22.3125H19.5664C20.1695 22.3125 20.6602 22.8032 20.6602 23.4062C20.6602 24.0093 20.1695 24.5 19.5664 24.5H19.5039C18.9008 24.5 18.4102 24.0093 18.4102 23.4062C18.4102 22.8032 18.9008 22.3125 19.5039 22.3125Z" fill="#00B307"/>
</svg>
