<svg width="42" height="43" viewBox="0 0 42 43" fill="none" xmlns="http://www.w3.org/2000/svg">
<path d="M26.9829 3.24219C29.9249 4.03345 32.6074 5.58385 34.7616 7.73809C36.9159 9.89233 38.4663 12.5748 39.2575 15.5168" stroke="#2C742F" stroke-width="2" stroke-linecap="round" stroke-linejoin="round"/>
<path d="M25.1865 9.9502C26.9513 10.425 28.5604 11.3551 29.8527 12.6474C31.145 13.9396 32.0751 15.5488 32.5499 17.3136" stroke="#2C742F" stroke-width="2" stroke-linecap="round" stroke-linejoin="round"/>
<path d="M12.4625 21.6416C14.2621 25.322 17.2449 28.292 20.933 30.0757C21.2031 30.2036 21.5018 30.2589 21.7998 30.2361C22.0977 30.2133 22.3846 30.1131 22.632 29.9456L28.0639 26.3255C28.3038 26.1653 28.5799 26.0674 28.8671 26.0408C29.1544 26.0141 29.4437 26.0595 29.709 26.1728L39.8699 30.5287C40.215 30.6753 40.5032 30.9301 40.691 31.2546C40.8788 31.5792 40.9561 31.956 40.9112 32.3283C40.5895 34.8411 39.3631 37.1506 37.4616 38.8244C35.56 40.4983 33.1135 41.4217 30.5802 41.4219C22.7558 41.4219 15.2518 38.3136 9.71909 32.7809C4.18637 27.2482 1.07813 19.7442 1.07812 11.9198C1.07836 9.38665 2.00185 6.94044 3.67571 5.03914C5.34957 3.13784 7.65903 1.91181 10.1717 1.59057C10.544 1.54568 10.9208 1.62294 11.2454 1.81074C11.5699 1.99853 11.8247 2.28669 11.9713 2.63182L16.3307 12.8014C16.4428 13.0641 16.4883 13.3505 16.4632 13.6351C16.4381 13.9196 16.3431 14.1936 16.1867 14.4327L12.577 19.9478C12.4132 20.1962 12.3165 20.4828 12.2964 20.7796C12.2764 21.0765 12.3336 21.3734 12.4625 21.6416V21.6416Z" stroke="#2C742F" stroke-width="2" stroke-linecap="round" stroke-linejoin="round"/>
</svg>
