<svg width="24" height="29" viewBox="0 0 24 29" fill="none" xmlns="http://www.w3.org/2000/svg">
<path d="M23.4242 22.0659C23.0158 23.0169 22.5115 23.9238 21.9192 24.7725C21.127 25.9013 20.4789 26.6824 19.9796 27.1164C19.2055 27.828 18.3754 28.1932 17.487 28.2136C16.8494 28.2136 16.0806 28.0322 15.1852 27.6641C14.2868 27.2978 13.4614 27.1158 12.7066 27.1158C11.915 27.1158 11.0662 27.2978 10.158 27.6641C9.24858 28.0322 8.51591 28.2241 7.95591 28.2428C7.10425 28.2795 6.25491 27.9044 5.40675 27.1164C4.866 26.6439 4.18991 25.8354 3.37908 24.6897C2.50933 23.4659 1.79416 22.0472 1.23416 20.429C0.634496 18.682 0.333496 16.9897 0.333496 15.3517C0.333496 13.4751 0.738913 11.8569 1.55091 10.5007C2.18966 9.41103 3.03841 8.55237 4.10125 7.9212C5.14394 7.29723 6.33368 6.96145 7.54875 6.9482C8.22541 6.9482 9.11266 7.15762 10.2157 7.56887C11.3153 7.98128 12.0212 8.1907 12.3309 8.1907C12.5619 8.1907 13.3465 7.9457 14.6759 7.45803C15.9336 7.00537 16.9947 6.81812 17.8638 6.8922C20.2199 7.08237 21.9897 8.01103 23.1663 9.68403C21.0599 10.9604 20.0175 12.7483 20.0385 15.0419C20.0572 16.8287 20.7052 18.3156 21.9792 19.4957C22.5567 20.044 23.2013 20.4675 23.9182 20.768C23.7679 21.2059 23.6032 21.6388 23.4242 22.0659ZM18.0213 0.805701C18.0213 2.2057 17.5097 3.51353 16.4901 4.72337C15.2592 6.16245 13.7712 6.9937 12.1571 6.86245C12.1354 6.68634 12.1245 6.50906 12.1244 6.33162C12.1244 4.98762 12.7095 3.54912 13.749 2.37253C14.2682 1.77695 14.9273 1.2817 15.7277 0.886784C16.5268 0.497701 17.2817 0.282451 17.9922 0.245117C18.0126 0.432367 18.0213 0.619617 18.0213 0.805117V0.805701Z" fill="white"/>
</svg>
