<svg width="65" height="32" viewBox="0 0 65 32" fill="none" xmlns="http://www.w3.org/2000/svg">
<rect x="0.5" y="0.5" width="64" height="31" rx="4.79412" fill="#1A1A1A" stroke="#333333"/>
<g clip-path="url(#clip0_8328_13565)">
<rect width="11" height="11" transform="translate(5 4)" fill="#1A1A1A"/>
<path d="M13.7083 9.04199H7.29167C6.78541 9.04199 6.375 9.4524 6.375 9.95866V13.167C6.375 13.6733 6.78541 14.0837 7.29167 14.0837H13.7083C14.2146 14.0837 14.625 13.6733 14.625 13.167V9.95866C14.625 9.4524 14.2146 9.04199 13.7083 9.04199Z" stroke="white" stroke-width="0.916667" stroke-linecap="round" stroke-linejoin="round"/>
<path d="M8.2085 9.04199V7.20866C8.2085 6.60087 8.44994 6.01798 8.87971 5.58821C9.30948 5.15843 9.89237 4.91699 10.5002 4.91699C11.108 4.91699 11.6908 5.15843 12.1206 5.58821C12.5504 6.01798 12.7918 6.60087 12.7918 7.20866V9.04199" stroke="white" stroke-width="0.916667" stroke-linecap="round" stroke-linejoin="round"/>
</g>
<path d="M21.278 13.077C20.772 13.077 20.3173 12.989 19.914 12.813C19.518 12.6297 19.2063 12.3803 18.979 12.065C18.7517 11.7423 18.6343 11.372 18.627 10.954H19.694C19.7307 11.3133 19.8773 11.6177 20.134 11.867C20.398 12.109 20.7793 12.23 21.278 12.23C21.7547 12.23 22.1287 12.1127 22.4 11.878C22.6787 11.636 22.818 11.328 22.818 10.954C22.818 10.6607 22.7373 10.4223 22.576 10.239C22.4147 10.0557 22.213 9.91633 21.971 9.821C21.729 9.72567 21.4027 9.623 20.992 9.513C20.486 9.381 20.079 9.249 19.771 9.117C19.4703 8.985 19.21 8.77967 18.99 8.501C18.7773 8.215 18.671 7.83367 18.671 7.357C18.671 6.939 18.7773 6.56867 18.99 6.246C19.2027 5.92333 19.4997 5.674 19.881 5.498C20.2697 5.322 20.7133 5.234 21.212 5.234C21.9307 5.234 22.5173 5.41367 22.972 5.773C23.434 6.13233 23.6943 6.609 23.753 7.203H22.653C22.6163 6.90967 22.4623 6.653 22.191 6.433C21.9197 6.20567 21.5603 6.092 21.113 6.092C20.695 6.092 20.354 6.202 20.09 6.422C19.826 6.63467 19.694 6.93533 19.694 7.324C19.694 7.60267 19.771 7.83 19.925 8.006C20.0863 8.182 20.2807 8.31767 20.508 8.413C20.7427 8.501 21.069 8.60367 21.487 8.721C21.993 8.86033 22.4 8.99967 22.708 9.139C23.016 9.271 23.28 9.48 23.5 9.766C23.72 10.0447 23.83 10.426 23.83 10.91C23.83 11.284 23.731 11.636 23.533 11.966C23.335 12.296 23.0417 12.5637 22.653 12.769C22.2643 12.9743 21.806 13.077 21.278 13.077ZM30.8031 9.755C30.8031 9.94567 30.7921 10.1473 30.7701 10.36H25.9521C25.9887 10.954 26.1904 11.4197 26.5571 11.757C26.9311 12.087 27.3821 12.252 27.9101 12.252C28.3427 12.252 28.7021 12.153 28.9881 11.955C29.2814 11.7497 29.4867 11.4783 29.6041 11.141H30.6821C30.5207 11.7203 30.1981 12.1933 29.7141 12.56C29.2301 12.9193 28.6287 13.099 27.9101 13.099C27.3381 13.099 26.8247 12.9707 26.3701 12.714C25.9227 12.4573 25.5707 12.0943 25.3141 11.625C25.0574 11.1483 24.9291 10.5983 24.9291 9.975C24.9291 9.35167 25.0537 8.80533 25.3031 8.336C25.5524 7.86667 25.9007 7.50733 26.3481 7.258C26.8027 7.00133 27.3234 6.873 27.9101 6.873C28.4821 6.873 28.9881 6.99767 29.4281 7.247C29.8681 7.49633 30.2054 7.841 30.4401 8.281C30.6821 8.71367 30.8031 9.205 30.8031 9.755ZM29.7691 9.546C29.7691 9.16467 29.6847 8.83833 29.5161 8.567C29.3474 8.28833 29.1164 8.07933 28.8231 7.94C28.5371 7.79333 28.2181 7.72 27.8661 7.72C27.3601 7.72 26.9274 7.88133 26.5681 8.204C26.2161 8.52667 26.0144 8.974 25.9631 9.546H29.7691ZM31.7503 9.975C31.7503 9.35167 31.875 8.809 32.1243 8.347C32.3737 7.87767 32.7183 7.51467 33.1583 7.258C33.6057 7.00133 34.1153 6.873 34.6873 6.873C35.428 6.873 36.0367 7.05267 36.5133 7.412C36.9973 7.77133 37.3163 8.27 37.4703 8.908H36.3923C36.2897 8.54133 36.088 8.25167 35.7873 8.039C35.494 7.82633 35.1273 7.72 34.6873 7.72C34.1153 7.72 33.6533 7.918 33.3013 8.314C32.9493 8.70267 32.7733 9.25633 32.7733 9.975C32.7733 10.701 32.9493 11.262 33.3013 11.658C33.6533 12.054 34.1153 12.252 34.6873 12.252C35.1273 12.252 35.494 12.1493 35.7873 11.944C36.0807 11.7387 36.2823 11.4453 36.3923 11.064H37.4703C37.309 11.68 36.9863 12.175 36.5023 12.549C36.0183 12.9157 35.4133 13.099 34.6873 13.099C34.1153 13.099 33.6057 12.9707 33.1583 12.714C32.7183 12.4573 32.3737 12.0943 32.1243 11.625C31.875 11.1557 31.7503 10.6057 31.7503 9.975ZM44.152 6.972V13H43.151V12.109C42.9603 12.417 42.6927 12.659 42.348 12.835C42.0107 13.0037 41.6367 13.088 41.226 13.088C40.7567 13.088 40.335 12.9927 39.961 12.802C39.587 12.604 39.29 12.3107 39.07 11.922C38.8573 11.5333 38.751 11.0603 38.751 10.503V6.972H39.741V10.371C39.741 10.965 39.8913 11.4233 40.192 11.746C40.4927 12.0613 40.9033 12.219 41.424 12.219C41.9593 12.219 42.381 12.054 42.689 11.724C42.997 11.394 43.151 10.9137 43.151 10.283V6.972H44.152ZM46.8431 7.951C47.0191 7.60633 47.2685 7.33867 47.5911 7.148C47.9211 6.95733 48.3208 6.862 48.7901 6.862V7.896H48.5261C47.4041 7.896 46.8431 8.50467 46.8431 9.722V13H45.8421V6.972H46.8431V7.951ZM55.4456 9.755C55.4456 9.94567 55.4346 10.1473 55.4126 10.36H50.5946C50.6313 10.954 50.833 11.4197 51.1996 11.757C51.5736 12.087 52.0246 12.252 52.5526 12.252C52.9853 12.252 53.3446 12.153 53.6306 11.955C53.924 11.7497 54.1293 11.4783 54.2466 11.141H55.3246C55.1633 11.7203 54.8406 12.1933 54.3566 12.56C53.8726 12.9193 53.2713 13.099 52.5526 13.099C51.9806 13.099 51.4673 12.9707 51.0126 12.714C50.5653 12.4573 50.2133 12.0943 49.9566 11.625C49.7 11.1483 49.5716 10.5983 49.5716 9.975C49.5716 9.35167 49.6963 8.80533 49.9456 8.336C50.195 7.86667 50.5433 7.50733 50.9906 7.258C51.4453 7.00133 51.966 6.873 52.5526 6.873C53.1246 6.873 53.6306 6.99767 54.0706 7.247C54.5106 7.49633 54.848 7.841 55.0826 8.281C55.3246 8.71367 55.4456 9.205 55.4456 9.755ZM54.4116 9.546C54.4116 9.16467 54.3273 8.83833 54.1586 8.567C53.99 8.28833 53.759 8.07933 53.4656 7.94C53.1796 7.79333 52.8606 7.72 52.5086 7.72C52.0026 7.72 51.57 7.88133 51.2106 8.204C50.8586 8.52667 50.657 8.974 50.6056 9.546H54.4116Z" fill="white"/>
<path d="M11.8032 20.216C11.8032 20.664 11.6952 21.084 11.4792 21.476C11.2712 21.868 10.9392 22.184 10.4832 22.424C10.0352 22.664 9.46719 22.784 8.77919 22.784H7.37519V26H5.69519V17.624H8.77919C9.42719 17.624 9.97919 17.736 10.4352 17.96C10.8912 18.184 11.2312 18.492 11.4552 18.884C11.6872 19.276 11.8032 19.72 11.8032 20.216ZM8.70719 21.428C9.17119 21.428 9.51519 21.324 9.73919 21.116C9.96319 20.9 10.0752 20.6 10.0752 20.216C10.0752 19.4 9.61919 18.992 8.70719 18.992H7.37519V21.428H8.70719ZM12.564 22.652C12.564 21.98 12.696 21.384 12.96 20.864C13.232 20.344 13.596 19.944 14.052 19.664C14.516 19.384 15.032 19.244 15.6 19.244C16.096 19.244 16.528 19.344 16.896 19.544C17.272 19.744 17.572 19.996 17.796 20.3V19.352H19.488V26H17.796V25.028C17.58 25.34 17.28 25.6 16.896 25.808C16.52 26.008 16.084 26.108 15.588 26.108C15.028 26.108 14.516 25.964 14.052 25.676C13.596 25.388 13.232 24.984 12.96 24.464C12.696 23.936 12.564 23.332 12.564 22.652ZM17.796 22.676C17.796 22.268 17.716 21.92 17.556 21.632C17.396 21.336 17.18 21.112 16.908 20.96C16.636 20.8 16.344 20.72 16.032 20.72C15.72 20.72 15.432 20.796 15.168 20.948C14.904 21.1 14.688 21.324 14.52 21.62C14.36 21.908 14.28 22.252 14.28 22.652C14.28 23.052 14.36 23.404 14.52 23.708C14.688 24.004 14.904 24.232 15.168 24.392C15.44 24.552 15.728 24.632 16.032 24.632C16.344 24.632 16.636 24.556 16.908 24.404C17.18 24.244 17.396 24.02 17.556 23.732C17.716 23.436 17.796 23.084 17.796 22.676ZM27.4888 19.352L23.3728 29.144H21.5848L23.0248 25.832L20.3608 19.352H22.2448L23.9608 23.996L25.7008 19.352H27.4888ZM36.6504 19.256C37.4664 19.256 38.1224 19.508 38.6184 20.012C39.1224 20.508 39.3744 21.204 39.3744 22.1V26H37.6944V22.328C37.6944 21.808 37.5624 21.412 37.2984 21.14C37.0344 20.86 36.6744 20.72 36.2184 20.72C35.7624 20.72 35.3984 20.86 35.1264 21.14C34.8624 21.412 34.7304 21.808 34.7304 22.328V26H33.0504V22.328C33.0504 21.808 32.9184 21.412 32.6544 21.14C32.3904 20.86 32.0304 20.72 31.5744 20.72C31.1104 20.72 30.7424 20.86 30.4704 21.14C30.2064 21.412 30.0744 21.808 30.0744 22.328V26H28.3944V19.352H30.0744V20.156C30.2904 19.876 30.5664 19.656 30.9024 19.496C31.2464 19.336 31.6224 19.256 32.0304 19.256C32.5504 19.256 33.0144 19.368 33.4224 19.592C33.8304 19.808 34.1464 20.12 34.3704 20.528C34.5864 20.144 34.8984 19.836 35.3064 19.604C35.7224 19.372 36.1704 19.256 36.6504 19.256ZM47.1486 22.532C47.1486 22.772 47.1326 22.988 47.1006 23.18H42.2406C42.2806 23.66 42.4486 24.036 42.7446 24.308C43.0406 24.58 43.4046 24.716 43.8366 24.716C44.4606 24.716 44.9046 24.448 45.1686 23.912H46.9806C46.7886 24.552 46.4206 25.08 45.8766 25.496C45.3326 25.904 44.6646 26.108 43.8726 26.108C43.2326 26.108 42.6566 25.968 42.1446 25.688C41.6406 25.4 41.2446 24.996 40.9566 24.476C40.6766 23.956 40.5366 23.356 40.5366 22.676C40.5366 21.988 40.6766 21.384 40.9566 20.864C41.2366 20.344 41.6286 19.944 42.1326 19.664C42.6366 19.384 43.2166 19.244 43.8726 19.244C44.5046 19.244 45.0686 19.38 45.5646 19.652C46.0686 19.924 46.4566 20.312 46.7286 20.816C47.0086 21.312 47.1486 21.884 47.1486 22.532ZM45.4086 22.052C45.4006 21.62 45.2446 21.276 44.9406 21.02C44.6366 20.756 44.2646 20.624 43.8246 20.624C43.4086 20.624 43.0566 20.752 42.7686 21.008C42.4886 21.256 42.3166 21.604 42.2526 22.052H45.4086ZM52.0589 19.256C52.8509 19.256 53.4909 19.508 53.9789 20.012C54.4669 20.508 54.7109 21.204 54.7109 22.1V26H53.0309V22.328C53.0309 21.8 52.8989 21.396 52.6349 21.116C52.3709 20.828 52.0109 20.684 51.5549 20.684C51.0909 20.684 50.7229 20.828 50.4509 21.116C50.1869 21.396 50.0549 21.8 50.0549 22.328V26H48.3749V19.352H50.0549V20.18C50.2789 19.892 50.5629 19.668 50.9069 19.508C51.2589 19.34 51.6429 19.256 52.0589 19.256ZM58.2645 20.732V23.948C58.2645 24.172 58.3165 24.336 58.4205 24.44C58.5325 24.536 58.7165 24.584 58.9725 24.584H59.7525V26H58.6965C57.2805 26 56.5725 25.312 56.5725 23.936V20.732H55.7805V19.352H56.5725V17.708H58.2645V19.352H59.7525V20.732H58.2645Z" fill="white"/>
<defs>
<clipPath id="clip0_8328_13565">
<rect width="11" height="11" fill="white" transform="translate(5 4)"/>
</clipPath>
</defs>
</svg>
