<svg width="45" height="32" viewBox="0 0 45 32" fill="none" xmlns="http://www.w3.org/2000/svg">
<rect x="0.5" y="0.5" width="44" height="30.7647" rx="4.79412" fill="#1A1A1A" stroke="#333333"/>
<path d="M18.5293 30.6767L43.6764 23.0664V26.7061C43.6764 28.899 41.8987 30.6767 39.7058 30.6767H18.5293Z" fill="#FD6020"/>
<path fill-rule="evenodd" clip-rule="evenodd" d="M38.9033 12.0588C40.2868 12.0588 41.0477 12.6988 41.0477 13.9076C41.1169 14.8321 40.4943 15.6143 39.6642 15.7565L41.5319 18.3875H40.0793L38.4883 15.8276H38.3499V18.3875H37.174V12.0588H38.9033ZM38.3502 14.9745H38.696C39.457 14.9745 39.8028 14.619 39.8028 13.979C39.8028 13.4101 39.457 13.0546 38.696 13.0546H38.3502V14.9745ZM33.0935 18.3875H36.4139V17.3209H34.2695V15.6143H36.3447V14.5476H34.2695V13.1254H36.4139V12.0588H33.0935V18.3875ZM29.6338 16.3254L28.0428 12.0588H26.7977L29.3571 18.5297H29.9797L32.5391 12.0588H31.294L29.6338 16.3254ZM15.5917 15.2584C15.5917 17.0361 16.9751 18.5294 18.7045 18.5294C19.2579 18.5294 19.7421 18.3872 20.2263 18.1739V16.7517C19.8804 17.1784 19.3962 17.4628 18.8428 17.4628C17.736 17.4628 16.8368 16.6095 16.8368 15.4717V15.3295C16.7676 14.1918 17.6669 13.1962 18.7737 13.1251C19.327 13.1251 19.8804 13.4096 20.2263 13.8362V12.414C19.8113 12.1296 19.2579 12.0585 18.7737 12.0585C16.9751 11.9163 15.5917 13.4096 15.5917 15.2584ZM13.4469 14.4765C12.7552 14.1921 12.5477 14.0499 12.5477 13.6943C12.6168 13.2677 12.9627 12.9121 13.3778 12.9832C13.7236 12.9832 14.0695 13.1966 14.3462 13.481L14.9688 12.6277C14.4845 12.201 13.862 11.9166 13.2394 11.9166C12.271 11.8455 11.4409 12.6277 11.3717 13.6232V13.6943C11.3717 14.5476 11.7176 15.0454 12.8244 15.401C13.1011 15.4721 13.3778 15.6143 13.6544 15.7565C13.862 15.8987 14.0003 16.112 14.0003 16.3965C14.0003 16.8942 13.5853 17.3209 13.1702 17.3209H13.1011C12.5477 17.3209 12.0634 16.9654 11.8559 16.4676L11.095 17.2498C11.5101 18.032 12.3401 18.4586 13.1702 18.4586C14.277 18.5298 15.1763 17.6764 15.2454 16.5387V16.3254C15.1763 15.4721 14.8304 15.0454 13.4469 14.4765ZM9.43543 18.3875H10.6114V12.0588H9.43543V18.3875ZM3.9707 12.0588H5.70005H6.04592C7.70609 12.1299 9.0204 13.5521 8.95122 15.2587C8.95122 16.1831 8.53618 17.0365 7.84444 17.6764C7.22188 18.1742 6.46096 18.4586 5.70005 18.3875H3.9707V12.0588ZM5.49264 17.3205C6.04603 17.3916 6.6686 17.1783 7.08364 16.8227C7.49868 16.3961 7.70621 15.8272 7.70621 15.1872C7.70621 14.6183 7.49868 14.0495 7.08364 13.6228C6.6686 13.2673 6.04603 13.0539 5.49264 13.1251H5.14677V17.3205H5.49264Z" fill="white"/>
<path fill-rule="evenodd" clip-rule="evenodd" d="M23.7548 11.9121C22.0254 11.9121 20.5728 13.3343 20.5728 15.1831C20.5728 16.9609 21.9562 18.4542 23.7548 18.5253C25.5533 18.5964 26.9368 17.1031 27.0059 15.2542C26.9368 13.4054 25.5533 11.9121 23.7548 11.9121V11.9121Z" fill="#FD6020"/>
</svg>
