<svg width="45" height="32" viewBox="0 0 45 32" fill="none" xmlns="http://www.w3.org/2000/svg">
<rect x="0.5" y="0.5" width="44" height="30.7647" rx="4.79412" fill="#1A1A1A" stroke="#333333"/>
<path fill-rule="evenodd" clip-rule="evenodd" d="M28.5585 24.392C33.515 24.392 37.533 20.4219 37.533 15.5244C37.533 10.6269 33.515 6.65674 28.5585 6.65674C26.3371 6.65674 24.3042 7.45422 22.7371 8.77525C21.17 7.45432 19.1372 6.6569 16.9158 6.6569C11.9594 6.6569 7.94141 10.6271 7.94141 15.5245C7.94141 20.422 11.9594 24.3922 16.9158 24.3922C19.1372 24.3922 21.1701 23.5947 22.7373 22.2737C24.3044 23.5946 26.3372 24.392 28.5585 24.392Z" fill="#ED0006"/>
<path fill-rule="evenodd" clip-rule="evenodd" d="M22.7368 22.274C24.6667 20.6476 25.8904 18.2272 25.8904 15.5244C25.8904 12.8216 24.6667 10.4012 22.7368 8.77473C24.3039 7.45401 26.3365 6.65674 28.5576 6.65674C33.5141 6.65674 37.5321 10.6269 37.5321 15.5244C37.5321 20.4219 33.5141 24.392 28.5576 24.392C26.3365 24.392 24.3039 23.5948 22.7368 22.274Z" fill="#F9A000"/>
<path fill-rule="evenodd" clip-rule="evenodd" d="M22.737 22.2736C24.6665 20.6471 25.8899 18.227 25.8899 15.5245C25.8899 12.822 24.6665 10.4019 22.737 8.77539C20.8075 10.4019 19.584 12.822 19.584 15.5245C19.584 18.227 20.8075 20.6471 22.737 22.2736Z" fill="#FF5E00"/>
</svg>
