<svg width="45" height="32" viewBox="0 0 45 32" fill="none" xmlns="http://www.w3.org/2000/svg">
<rect x="0.5" y="0.5" width="44" height="30.7647" rx="4.79412" fill="#1A1A1A" stroke="#333333"/>
<path fill-rule="evenodd" clip-rule="evenodd" d="M12.5063 11.0424C12.1286 11.5081 11.5242 11.8755 10.9199 11.823C10.8443 11.1932 11.1402 10.5241 11.4865 10.1109C11.8642 9.632 12.5252 9.29089 13.0603 9.26465C13.1232 9.92063 12.8777 10.5635 12.5063 11.0424ZM13.0545 11.9474C12.522 11.9155 12.0362 12.1143 11.6438 12.2748C11.3913 12.3782 11.1775 12.4657 11.0148 12.4657C10.8322 12.4657 10.6096 12.3735 10.3596 12.27C10.032 12.1344 9.65749 11.9793 9.26475 11.9868C8.36453 11.9999 7.52727 12.5313 7.06773 13.3775C6.12345 15.0699 6.82221 17.5757 7.73502 18.9533C8.18197 19.6355 8.71707 20.3833 9.42213 20.3571C9.73231 20.3449 9.95544 20.2462 10.1864 20.1441C10.4522 20.0266 10.7284 19.9045 11.1596 19.9045C11.5759 19.9045 11.84 20.0234 12.0935 20.1376C12.3345 20.2461 12.566 20.3504 12.9097 20.344C13.6399 20.3309 14.0995 19.6618 14.5464 18.9795C15.0288 18.2473 15.2407 17.5327 15.2729 17.4243L15.2767 17.4117C15.2759 17.4109 15.2699 17.4081 15.2594 17.4031C15.0982 17.3262 13.8658 16.7383 13.8539 15.1617C13.8421 13.8385 14.8315 13.168 14.9872 13.0625C14.9967 13.0561 15.0031 13.0517 15.006 13.0495C14.3764 12.0786 13.3944 11.9737 13.0545 11.9474ZM18.1099 20.2721V10.0453H21.7926C23.6937 10.0453 25.022 11.4098 25.022 13.4039C25.022 15.3981 23.6685 16.7757 21.7422 16.7757H19.6333V20.2721H18.1099ZM19.6324 11.3837H21.3888C22.7108 11.3837 23.4662 12.1184 23.4662 13.4107C23.4662 14.703 22.7108 15.4442 21.3825 15.4442H19.6324V11.3837ZM30.0518 19.0453C29.6489 19.8456 28.7612 20.3507 27.8044 20.3507C26.388 20.3507 25.3996 19.4717 25.3996 18.1466C25.3996 16.8346 26.3565 16.0802 28.1254 15.9687L30.0266 15.8507V15.2865C30.0266 14.4534 29.5041 14.0008 28.5724 14.0008C27.8044 14.0008 27.2441 14.4141 27.1308 15.0438H25.7584C25.8025 13.7187 26.9986 12.7544 28.6165 12.7544C30.3602 12.7544 31.4934 13.7056 31.4934 15.1816V20.272H30.0832V19.0453H30.0518ZM28.213 19.1374C27.4009 19.1374 26.8847 18.7307 26.8847 18.1075C26.8847 17.4646 27.382 17.0907 28.3326 17.0317L30.026 16.9202V17.4974C30.026 18.4552 29.2454 19.1374 28.213 19.1374ZM36.1701 20.6719C35.5594 22.4628 34.8607 23.0532 33.375 23.0532C33.2617 23.0532 32.884 23.04 32.7958 23.0138V21.7871C32.8903 21.8002 33.1232 21.8133 33.2428 21.8133C33.9164 21.8133 34.2941 21.5182 34.527 20.7507L34.6655 20.298L32.0845 12.8527H33.6772L35.4713 18.8942H35.5028L37.2969 12.8527H38.8455L36.1701 20.6719Z" fill="white"/>
</svg>
