<svg width="45" height="32" viewBox="0 0 45 32" fill="none" xmlns="http://www.w3.org/2000/svg">
<rect x="0.5" y="0.5" width="44" height="30.7647" rx="4.79412" fill="#1A1A1A" stroke="#333333"/>
<path fill-rule="evenodd" clip-rule="evenodd" d="M14.2284 20.9889H11.5022L9.45797 12.9605C9.36094 12.5912 9.15492 12.2647 8.85187 12.1108C8.09557 11.7241 7.26218 11.4164 6.35303 11.2612V10.9521H10.7446C11.3507 10.9521 11.8053 11.4164 11.881 11.9556L12.9417 17.7467L15.6665 10.9521H18.3169L14.2284 20.9889ZM19.8325 20.9889H17.2579L19.378 10.9521H21.9526L19.8325 20.9889ZM25.2828 13.7327C25.3586 13.1921 25.8132 12.883 26.3435 12.883C27.1769 12.8054 28.0847 12.9606 28.8424 13.346L29.2969 11.185C28.5393 10.8759 27.7059 10.7207 26.9496 10.7207C24.4508 10.7207 22.6325 12.1109 22.6325 14.0404C22.6325 15.5083 23.9204 16.279 24.8296 16.7433C25.8132 17.2063 26.192 17.5154 26.1162 17.9783C26.1162 18.6728 25.3586 18.9819 24.6023 18.9819C23.6931 18.9819 22.784 18.7504 21.9519 18.3637L21.4974 20.526C22.4065 20.9114 23.3901 21.0666 24.2992 21.0666C27.1011 21.1429 28.8424 19.7539 28.8424 17.6693C28.8424 15.044 25.2828 14.8901 25.2828 13.7327ZM37.8526 20.9889L35.8084 10.9521H33.6126C33.158 10.9521 32.7034 11.2612 32.5519 11.7241L28.7664 20.9889H31.4168L31.9458 19.5223H35.2023L35.5053 20.9889H37.8526ZM33.9922 13.6553L34.7485 17.438H32.6284L33.9922 13.6553Z" fill="white"/>
</svg>
