<svg width="16" height="15" viewBox="0 0 16 15" fill="none" xmlns="http://www.w3.org/2000/svg">
<path d="M8.31008 11.9111L11.8566 14.1577C12.31 14.4446 12.8725 14.0176 12.7381 13.4883L11.7138 9.45802C11.6848 9.34576 11.6882 9.22761 11.7234 9.11715C11.7586 9.0067 11.8243 8.90843 11.9129 8.83365L15.0933 6.18708C15.5106 5.83946 15.2958 5.1459 14.7586 5.11102L10.6056 4.84102C10.4938 4.83309 10.3866 4.79356 10.2964 4.72704C10.2061 4.66052 10.1367 4.56974 10.096 4.46527L8.5469 0.564897C8.50472 0.45405 8.42984 0.358643 8.33219 0.291325C8.23455 0.224007 8.11875 0.187958 8.00015 0.187958C7.88155 0.187958 7.76575 0.224007 7.6681 0.291325C7.57046 0.358643 7.49558 0.45405 7.4534 0.564897L5.90427 4.46527C5.86372 4.56985 5.79429 4.66074 5.70406 4.72737C5.61383 4.79399 5.50652 4.83361 5.39465 4.84158L1.24171 5.11158C0.705084 5.1459 0.489084 5.83946 0.907022 6.18708L4.0874 8.83421C4.17588 8.90895 4.2415 9.00712 4.27673 9.11746C4.31195 9.2278 4.31534 9.34584 4.28652 9.45802L3.33702 13.1958C3.17558 13.8309 3.85115 14.3433 4.39452 13.9985L7.69077 11.9111C7.78342 11.8522 7.89093 11.8209 8.00071 11.8209C8.11049 11.8209 8.218 11.8522 8.31065 11.9111H8.31008Z" fill="#FF8A00"/>
</svg>
